# xmcd
#
# Track frame offsets:
# 150
# 18471
# 33674
# 45827
# 68178
# 86568
# 99941
# 112823
# 126134
# 143668
#
# Disc length: 2143 seconds
#
#
# Revision: 0
# Processed by: cddbd v1.5.1PL0 Copyright (c) Steve Scherf et al.
# Submitted via: FreeRIP 2.942 
#
DISCID=76085d0a
DTITLE=Gordon Lightfoot - Endless Wire
DYEAR=1900
DGENRE=Bluegrass
TTITLE0=Daylight Katy
TTITLE1=Dreamland
TTITLE2=Endless Wire
TTITLE3=Hangdog Hotel Room
TTITLE4=If Children Had Wings
TTITLE5=If There's A Reason
TTITLE6=Sometimes I Don't Mind
TTITLE7=Songs The Minstrel Sang
TTITLE8=Sweet Guinevere
TTITLE9=The Circle Is Small
EXTD=
EXTT0=
EXTT1=
EXTT2=
EXTT3=
EXTT4=
EXTT5=
EXTT6=
EXTT7=
EXTT8=
EXTT9=
PLAYORDER=
